<svg xmlns="http://www.w3.org/2000/svg" viewBox="0 0 1440 420" role="img" aria-label="neopastels 04 postcard">
<rect width="1440" height="420" fill="#171716"/>
<g transform="translate(528 18)">
<rect x="0" y="0" width="48" height="48" fill="#ff42b4"/>
<rect x="48" y="0" width="48" height="48" fill="#ff42b4"/>
<rect x="96" y="0" width="48" height="48" fill="#f856bb"/>
<rect x="144" y="0" width="48" height="48" fill="#ff42b4"/>
<rect x="192" y="0" width="48" height="48" fill="#ff42b4"/>
<rect x="240" y="0" width="48" height="48" fill="#ff42b4"/>
<rect x="288" y="0" width="48" height="48" fill="#ff42b4"/>
<rect x="336" y="0" width="48" height="48" fill="#ff42b4"/>
<rect x="0" y="48" width="48" height="48" fill="#ff42b4"/>
<rect x="48" y="48" width="48" height="48" fill="#ff42b4"/>
<rect x="96" y="48" width="48" height="48" fill="#ff42b4"/>
<rect x="144" y="48" width="48" height="48" fill="#ff42b4"/>
<rect x="192" y="48" width="48" height="48" fill="#ff42b4"/>
<rect x="240" y="48" width="48" height="48" fill="#ff42b4"/>
<rect x="288" y="48" width="48" height="48" fill="#ff47b5"/>
<rect x="336" y="48" width="48" height="48" fill="#e264bf"/>
<rect x="0" y="96" width="48" height="48" fill="#ed5dbd"/>
<rect x="48" y="96" width="48" height="48" fill="#de65c0"/>
<rect x="96" y="96" width="48" height="48" fill="#ca70c4"/>
<rect x="144" y="96" width="48" height="48" fill="#f15bbc"/>
<rect x="192" y="96" width="48" height="48" fill="#d968c1"/>
<rect x="240" y="96" width="48" height="48" fill="#fd53ba"/>
<rect x="288" y="96" width="48" height="48" fill="#b77ac9"/>
<rect x="336" y="96" width="48" height="48" fill="#7197d5"/>
<rect x="0" y="144" width="48" height="48" fill="#7197d5"/>
<rect x="48" y="144" width="48" height="48" fill="#47a4db"/>
<rect x="96" y="144" width="48" height="48" fill="#5e9dd8"/>
<rect x="144" y="144" width="48" height="48" fill="#4fa2da"/>
<rect x="192" y="144" width="48" height="48" fill="#699ad6"/>
<rect x="240" y="144" width="48" height="48" fill="#878ed1"/>
<rect x="288" y="144" width="48" height="48" fill="#44a4db"/>
<rect x="336" y="144" width="48" height="48" fill="#1cabdf"/>
<rect x="0" y="192" width="48" height="48" fill="#00b7e4"/>
<rect x="48" y="192" width="48" height="48" fill="#00b7e4"/>
<rect x="96" y="192" width="48" height="48" fill="#00b1e1"/>
<rect x="144" y="192" width="48" height="48" fill="#00b2e1"/>
<rect x="192" y="192" width="48" height="48" fill="#4ba3da"/>
<rect x="240" y="192" width="48" height="48" fill="#47a4db"/>
<rect x="288" y="192" width="48" height="48" fill="#51a1da"/>
<rect x="336" y="192" width="48" height="48" fill="#6a99d6"/>
<rect x="0" y="240" width="48" height="48" fill="#3fa6dc"/>
<rect x="48" y="240" width="48" height="48" fill="#3aa7dc"/>
<rect x="96" y="240" width="48" height="48" fill="#689ad7"/>
<rect x="144" y="240" width="48" height="48" fill="#a382cc"/>
<rect x="192" y="240" width="48" height="48" fill="#9d86ce"/>
<rect x="240" y="240" width="48" height="48" fill="#a283cd"/>
<rect x="288" y="240" width="48" height="48" fill="#a382cc"/>
<rect x="336" y="240" width="48" height="48" fill="#da68c1"/>
<rect x="0" y="288" width="48" height="48" fill="#d16dc3"/>
<rect x="48" y="288" width="48" height="48" fill="#a781cc"/>
<rect x="96" y="288" width="48" height="48" fill="#e262bf"/>
<rect x="144" y="288" width="48" height="48" fill="#f458bc"/>
<rect x="192" y="288" width="48" height="48" fill="#f05bbc"/>
<rect x="240" y="288" width="48" height="48" fill="#ef5bbd"/>
<rect x="288" y="288" width="48" height="48" fill="#f756bb"/>
<rect x="336" y="288" width="48" height="48" fill="#ff42b4"/>
<rect x="0" y="336" width="48" height="48" fill="#ff44b5"/>
<rect x="48" y="336" width="48" height="48" fill="#fd53ba"/>
<rect x="96" y="336" width="48" height="48" fill="#ff44b4"/>
<rect x="144" y="336" width="48" height="48" fill="#ff44b5"/>
<rect x="192" y="336" width="48" height="48" fill="#ff42b4"/>
<rect x="240" y="336" width="48" height="48" fill="#ff49b6"/>
<rect x="288" y="336" width="48" height="48" fill="#ff42b4"/>
<rect x="336" y="336" width="48" height="48" fill="#ff42b4"/>
</g>
<rect x="528" y="18" width="384" height="384" fill="none" stroke="rgba(242,239,231,0.18)"/>
</svg>
