<svg xmlns="http://www.w3.org/2000/svg" viewBox="0 0 41 40" fill="none">
  <path d="M40.082 15.8616C39.3151 15.1671 38.1798 15.0646 37.2611 15.5368L37.2163 15.5568C37.0321 15.6542 36.8901 15.7467 36.7582 15.8391C36.7258 15.8616 36.6935 15.8841 36.6636 15.9066L36.5764 15.974C36.5466 15.9965 36.5217 16.019 36.4943 16.039C36.4694 16.0615 36.442 16.0839 36.4171 16.1039C36.2204 16.2738 36.0611 16.4337 35.9192 16.5861C35.7623 16.756 35.6279 16.9159 35.5034 17.0708C35.3789 17.2257 35.2668 17.3781 35.1598 17.528C34.9457 17.8252 34.7589 18.1126 34.5797 18.3974C34.2261 18.9645 33.9124 19.5166 33.6137 20.0662C33.3149 20.6133 33.0336 21.158 32.7597 21.6976C32.4858 22.2372 32.2194 22.7743 31.9555 23.309C31.6991 23.8311 31.4402 24.3558 31.1837 24.8779C31.1638 24.793 31.1414 24.708 31.1215 24.6231L30.997 24.1109C30.9148 23.7687 30.8352 23.4264 30.7555 23.0791C30.4368 21.6976 30.1331 20.2985 29.8293 18.892C29.5256 17.4855 29.2218 16.0715 28.9081 14.6549C28.5944 13.2359 28.2707 11.8144 27.9197 10.3829C27.728 9.6034 27.5288 8.81894 27.3122 8.03198C27.2574 7.83462 27.2027 7.63725 27.1479 7.43989L27.0583 7.1276C27.0035 6.93773 26.9487 6.75036 26.8914 6.56299C26.6649 5.81101 26.4184 5.06652 26.1495 4.35701C26.0151 4.00225 25.8731 3.65749 25.7238 3.32771C25.5744 2.99794 25.4175 2.68815 25.2557 2.39835C25.2134 2.3284 25.1735 2.25595 25.1312 2.1885C25.1113 2.15352 25.0889 2.11855 25.069 2.08607L25.0042 1.98614C24.9196 1.85623 24.8324 1.73131 24.7453 1.61389C24.6582 1.49647 24.5685 1.38655 24.4789 1.28662C24.3893 1.18419 24.2972 1.08925 24.205 1.00181C24.1129 0.914374 24.0208 0.834428 23.9287 0.75948C23.8366 0.684531 23.7419 0.617078 23.6473 0.554621C23.4581 0.429707 23.2689 0.327277 23.0697 0.244834C22.8705 0.16239 22.6664 0.0949368 22.4373 0.0499677C22.3228 0.0274832 22.2033 0.00749694 22.0738 -0.00249619C22.0091 -0.00999104 21.9419 -0.00999104 21.8747 -0.0124893C21.8398 -0.0124893 21.8074 -0.0124893 21.7726 -0.0124893C21.7377 -0.0124893 21.7029 -0.0124893 21.668 -0.00999104L21.5286 2.09361e-06C21.4838 0.00499866 21.4365 0.00999522 21.3941 0.0149918C21.307 0.0274832 21.2273 0.0424729 21.1502 0.0599609C20.9983 0.0949368 20.8638 0.137408 20.7344 0.187373C20.6696 0.212356 20.6074 0.239837 20.5452 0.267318C20.4829 0.297298 20.4232 0.327277 20.3634 0.359755C20.2439 0.42471 20.1244 0.499659 20.0099 0.587098C19.7758 0.756982 19.5468 0.971834 19.3277 1.24665C19.2181 1.38405 19.1086 1.53395 19.004 1.69883C18.8994 1.86372 18.7974 2.0461 18.7003 2.23846L18.6654 2.30842C18.653 2.3309 18.643 2.35338 18.6306 2.37837L18.5633 2.52077C18.5409 2.56824 18.5185 2.6182 18.4986 2.66817L18.4662 2.74312L18.4339 2.82056C18.3492 3.02292 18.2671 3.23528 18.1874 3.45263L18.1301 3.61752L18.0729 3.7849C18.0355 3.89482 17.9982 4.00975 17.9608 4.12467C17.8886 4.35451 17.8189 4.58435 17.7517 4.82169C17.6148 5.29136 17.4903 5.77353 17.3708 6.2582C17.311 6.50053 17.2537 6.74536 17.1965 6.9877C17.1691 7.11011 17.1392 7.23253 17.1118 7.35495C17.0944 7.43739 17.0745 7.51733 17.0571 7.59978C16.8305 8.61658 16.6288 9.62339 16.4346 10.6277C16.0512 12.6363 15.7126 14.6349 15.3865 16.6311C15.0628 18.6272 14.7541 20.6183 14.4503 22.6045C14.2561 23.8711 14.0644 25.1352 13.8702 26.4019L13.8005 26.1071C13.7731 25.9921 13.7432 25.8747 13.7159 25.7573C13.6586 25.5225 13.5988 25.2876 13.5341 25.0478C13.4046 24.5681 13.2627 24.0809 13.076 23.5538C13.0511 23.4864 13.0287 23.4214 13.0013 23.3539L12.9216 23.1466L12.832 22.9317L12.7822 22.8193L12.7573 22.7644L12.7449 22.7369C12.7449 22.7369 12.7374 22.7194 12.7324 22.7094L12.6752 22.592L12.6478 22.532L12.6328 22.502L12.6154 22.4696L12.5507 22.3446C12.5382 22.3247 12.5283 22.3047 12.5158 22.2822L12.4785 22.2147L12.4013 22.0798L12.3963 22.0723L12.3913 22.0623L12.3789 22.0448L12.3565 22.0074L12.3092 21.9349L12.2619 21.8625C12.2619 21.8625 12.2444 21.8375 12.2345 21.8225L12.2046 21.7825C12.1648 21.7276 12.1274 21.6751 12.0876 21.6226C12.0502 21.5752 12.0129 21.5277 11.9731 21.4852L11.9432 21.4503L11.9058 21.4103C11.8809 21.3853 11.856 21.3578 11.8311 21.3328L11.7938 21.2954L11.7739 21.2779L11.7515 21.2554C11.7191 21.2279 11.6867 21.1979 11.6544 21.1704L11.6046 21.1305L11.5797 21.1105L11.5672 21.1005L11.5523 21.088C11.5125 21.058 11.4701 21.028 11.4303 21.0006C11.4104 20.9856 11.388 20.9731 11.3681 20.9581L11.3357 20.9381L11.3183 20.9281L11.2983 20.9156C11.2485 20.8856 11.1963 20.8582 11.144 20.8307C11.1191 20.8182 11.0917 20.8032 11.0668 20.7907L11.027 20.7707L10.9821 20.7507C10.9224 20.7258 10.8602 20.7008 10.7979 20.6783C10.768 20.6683 10.7357 20.6558 10.7058 20.6458C10.6734 20.6358 10.6386 20.6258 10.6037 20.6158C10.5365 20.5983 10.4668 20.5809 10.3971 20.5684C10.3298 20.5559 10.2551 20.5434 10.1854 20.5359C10.1132 20.5284 10.041 20.5234 9.96883 20.5209C9.88916 20.5209 9.807 20.5209 9.72733 20.5234C9.68749 20.5234 9.64517 20.5284 9.60782 20.5334C9.57048 20.5384 9.53313 20.5409 9.49578 20.5484C9.42109 20.5584 9.34889 20.5734 9.2742 20.5884C9.20947 20.6033 9.14474 20.6208 9.08 20.6408C9.04764 20.6508 9.01527 20.6608 8.98539 20.6708C8.96797 20.6758 8.95552 20.6808 8.94307 20.6858L8.90323 20.7008C8.84846 20.7208 8.79617 20.7432 8.74389 20.7682L8.70405 20.7857L8.67169 20.8007C8.64928 20.8107 8.62687 20.8232 8.60696 20.8332C8.56463 20.8557 8.51982 20.8806 8.47749 20.9031C8.44263 20.9231 8.40778 20.9456 8.37292 20.9681L8.32064 21.0031C8.30321 21.0156 8.28578 21.028 8.27333 21.0355C8.24595 21.0555 8.21607 21.0755 8.18868 21.098L8.14636 21.1305L8.12644 21.1455L8.10901 21.1605C8.08661 21.1779 8.0642 21.1979 8.04179 21.2179L8.00942 21.2479C8.00942 21.2479 7.98702 21.2679 7.97706 21.2754C7.93971 21.3104 7.90237 21.3453 7.86751 21.3803C7.73804 21.5102 7.64842 21.6201 7.57123 21.7176L7.51895 21.7875L7.47164 21.8525L7.44924 21.885L7.42932 21.9149L7.38948 21.9749C7.2899 22.1273 7.21769 22.2547 7.15545 22.3696C7.09321 22.487 7.04092 22.592 6.99362 22.6919C6.89901 22.8918 6.82183 23.0716 6.74963 23.244C6.67743 23.4164 6.61269 23.5813 6.55294 23.7412C6.43094 24.0635 6.31891 24.3682 6.21185 24.668C6.10728 24.9578 6.00271 25.2476 5.89565 25.5399L5.83092 25.7173L5.77366 25.6549L5.67905 25.5499C5.61681 25.48 5.55207 25.4075 5.48983 25.3376C5.36285 25.1952 5.23837 25.0478 5.11637 24.9029C4.99189 24.7555 4.86989 24.6081 4.75038 24.4632L4.67569 24.3682L4.63586 24.3183C4.63586 24.3183 4.53876 24.2109 4.53627 24.2059H4.53129C3.31631 22.9118 0.936137 23.0217 0.149386 25.0553C-0.169298 25.8822 0.0398382 26.8266 0.585086 27.5236L0.595045 27.5411L0.672226 27.6385L0.746918 27.7309C0.891322 27.9083 1.03324 28.0807 1.17764 28.2506C1.32204 28.4205 1.46894 28.5928 1.61832 28.7602C1.69301 28.8452 1.7677 28.9301 1.84239 29.0126L1.95692 29.14C2.0092 29.1949 2.059 29.2524 2.11128 29.3074C2.18349 29.3823 2.2532 29.4598 2.3254 29.5347L2.43246 29.6471L2.53951 29.7595L2.75612 29.9819C2.83081 30.0543 2.90301 30.1268 2.97771 30.1992C3.04991 30.2717 3.12709 30.3416 3.19929 30.4116L3.31133 30.5165L3.3661 30.569L3.42336 30.619C3.49806 30.6864 3.57524 30.7514 3.64993 30.8188C3.68727 30.8538 3.72711 30.8838 3.76446 30.9137L3.87898 31.0062C3.91633 31.0362 3.95616 31.0686 3.99351 31.0986C4.03335 31.1286 4.07069 31.1561 4.11053 31.1861L4.22754 31.2735L4.28481 31.316L4.31468 31.3385C4.31468 31.3385 4.3346 31.3509 4.34456 31.3584L4.58108 31.5133C4.601 31.5258 4.62092 31.5383 4.64084 31.5508L4.70059 31.5833L4.81761 31.6507L4.93462 31.7182C4.97446 31.7382 5.01429 31.7557 5.05164 31.7757L5.16866 31.8306L5.22841 31.8581C5.24833 31.8656 5.26824 31.8731 5.28816 31.8831C5.36534 31.9156 5.44501 31.948 5.5222 31.978C5.59938 32.0005 5.67656 32.023 5.75374 32.0455C6.06247 32.1204 6.36372 32.1479 6.66996 32.1279C6.73718 32.1229 6.81187 32.1154 6.88656 32.1054C7.01354 32.0879 7.143 32.0605 7.265 32.028C7.32475 32.0105 7.3845 31.993 7.44177 31.973C7.47164 31.963 7.49903 31.953 7.52642 31.943C7.55381 31.9331 7.58368 31.9206 7.61107 31.9106C7.72062 31.8656 7.82767 31.8156 7.92975 31.7582C8.03183 31.7007 8.13142 31.6408 8.22852 31.5733C8.42272 31.4384 8.60945 31.2785 8.78622 31.0936C8.87585 31.0012 8.9605 30.9038 9.04515 30.7963C9.1298 30.6914 9.21196 30.5815 9.28914 30.4641C9.33395 30.3991 9.37628 30.3267 9.4186 30.2567C9.42358 30.2792 9.42856 30.2992 9.43354 30.3217C9.61778 31.211 9.80202 32.1054 9.99373 32.9748C10.0186 33.0823 10.041 33.1922 10.0659 33.2996C10.0908 33.407 10.1157 33.5145 10.1406 33.6219L10.178 33.7818L10.1954 33.8617L10.2153 33.9392C10.2402 34.0441 10.2651 34.149 10.29 34.254C10.3025 34.3064 10.3149 34.3589 10.3274 34.4113C10.3398 34.4613 10.3522 34.5138 10.3672 34.5637L10.4444 34.871C10.4518 34.896 10.4568 34.921 10.4643 34.946L10.4842 35.0209C10.4967 35.0709 10.5116 35.1209 10.524 35.1683L10.5639 35.3157C10.5763 35.3657 10.5913 35.4157 10.6037 35.4606C10.6311 35.5556 10.6585 35.6505 10.6859 35.7454C10.6983 35.7929 10.7133 35.8404 10.7257 35.8878L10.768 36.0227C10.7954 36.1127 10.8253 36.2026 10.8527 36.2951C10.8676 36.3425 10.8801 36.3825 10.895 36.425L10.9373 36.5524C10.9523 36.5948 10.9672 36.6373 10.9797 36.6798C10.9946 36.7223 11.0095 36.7672 11.022 36.8047C11.0519 36.8846 11.0817 36.9646 11.1116 37.042L11.1564 37.162L11.2012 37.2719L11.2909 37.4917C11.3058 37.5292 11.3207 37.5617 11.3357 37.5967L11.3805 37.6966C11.3954 37.7291 11.4104 37.764 11.4253 37.7965L11.4477 37.8465C11.4552 37.864 11.4627 37.8765 11.4701 37.894C11.5 37.9539 11.5324 38.0164 11.5623 38.0763L11.5847 38.1213C11.5921 38.1363 11.5996 38.1538 11.6071 38.1663L11.6544 38.2487C11.6842 38.3037 11.7166 38.3586 11.7465 38.4136L11.8386 38.561L11.8859 38.6334C11.8934 38.6459 11.9009 38.6584 11.9083 38.6684L11.9307 38.7009C11.9606 38.7459 11.993 38.7908 12.0228 38.8358L12.0403 38.8583L12.0577 38.8783L12.0901 38.9207L12.1573 39.0032C12.1797 39.0332 12.2021 39.0557 12.2245 39.0781L12.2917 39.1506C12.3789 39.243 12.4685 39.3205 12.5532 39.3904L12.5855 39.4179L12.6179 39.4404L12.6826 39.4854C12.705 39.5003 12.7249 39.5153 12.7474 39.5303L12.8121 39.5728C12.8345 39.5878 12.8544 39.6003 12.8768 39.6103L12.9416 39.6452C12.9416 39.6452 12.964 39.6577 12.9739 39.6627L13.0063 39.6777L13.071 39.7077L13.1333 39.7377L13.1656 39.7527C13.1656 39.7527 13.1855 39.7627 13.198 39.7677L13.2627 39.7926L13.2951 39.8051L13.3275 39.8151L13.3922 39.8376C13.4146 39.8451 13.4345 39.8501 13.4569 39.8576C13.4993 39.8701 13.5441 39.8826 13.5889 39.8926C13.6785 39.9151 13.7706 39.935 13.8677 39.945C13.9648 39.9575 14.0694 39.965 14.1839 39.9675C14.2138 39.9675 14.2511 39.9675 14.3034 39.9675C14.4229 39.9625 14.4877 39.9575 14.5499 39.95C14.6097 39.9425 14.6619 39.9351 14.7093 39.9276C14.8064 39.9101 14.891 39.8901 14.9757 39.8651C15.0603 39.8376 15.1425 39.8151 15.2246 39.7802C15.267 39.7652 15.3068 39.7452 15.3491 39.7277C15.3914 39.7077 15.4313 39.6852 15.4736 39.6652C15.5582 39.6253 15.6429 39.5728 15.73 39.5128C15.7524 39.4978 15.7749 39.4829 15.7948 39.4679C15.8172 39.4529 15.8396 39.4354 15.862 39.4204C15.8844 39.4029 15.9068 39.3854 15.9292 39.3679C15.9516 39.348 15.974 39.328 15.9964 39.308C16.0188 39.288 16.0413 39.268 16.0661 39.248C16.0886 39.2255 16.1135 39.2056 16.1359 39.1806C16.1583 39.1556 16.1832 39.1331 16.2056 39.1081L16.2404 39.0706C16.2529 39.0582 16.2628 39.0457 16.2753 39.0307C16.2977 39.0032 16.3226 38.9757 16.345 38.9457L16.3799 38.9008C16.3923 38.8858 16.4048 38.8708 16.4147 38.8558C16.4396 38.8233 16.462 38.7908 16.4869 38.7559C16.5118 38.7209 16.5342 38.6859 16.5591 38.6484C16.6537 38.501 16.7483 38.3237 16.838 38.1188C16.9276 37.9139 17.0147 37.6766 17.0969 37.4143L17.1268 37.3144L17.1417 37.2644L17.1566 37.2119C17.1766 37.142 17.1965 37.072 17.2164 37.0021L17.2737 36.7847C17.2936 36.7123 17.311 36.6348 17.3284 36.5599C17.4031 36.2576 17.4728 35.9403 17.5426 35.6155C17.6795 34.9635 17.809 34.2814 17.9334 33.5844C17.9957 33.2372 18.0554 32.8849 18.1152 32.5326C18.1749 32.1804 18.2347 31.8256 18.292 31.4684C18.4538 30.4865 18.6082 29.4947 18.7625 28.5029C18.8721 27.7834 18.9841 27.0664 19.0936 26.3469C19.2455 25.3551 19.3974 24.3633 19.5468 23.3714C19.8505 21.3903 20.1543 19.4142 20.4754 17.4455C20.7966 15.4794 21.1302 13.5182 21.4987 11.5845C21.683 10.6177 21.8771 9.65586 22.0888 8.71401L22.1162 8.5916C22.1411 8.67654 22.1635 8.76148 22.1884 8.84642C22.2407 9.0263 22.2904 9.20867 22.3402 9.39105C22.5394 10.1205 22.7286 10.8625 22.9129 11.6095C23.249 12.9786 23.5652 14.3676 23.8739 15.7617C24.1826 17.1582 24.4839 18.5622 24.7876 19.9738C25.0939 21.3853 25.4001 22.8018 25.7287 24.2308C25.8109 24.5881 25.8956 24.9454 25.9802 25.3051L26.1097 25.8447C26.1346 25.9422 26.157 26.0396 26.1819 26.137C26.2242 26.3044 26.2665 26.4718 26.3088 26.6392C26.4881 27.3362 26.6773 28.0307 26.884 28.7053C26.9885 29.0425 27.0956 29.3723 27.2101 29.6921C27.3247 30.0119 27.4466 30.3192 27.5761 30.6065C27.6682 30.8088 27.7628 30.9987 27.8649 31.1761C27.9645 31.3534 28.0691 31.5158 28.1761 31.6632C28.2832 31.8106 28.3952 31.943 28.5073 32.063C28.6193 32.1829 28.7338 32.2853 28.8508 32.3777C28.9654 32.4702 29.0824 32.5501 29.2019 32.6201C29.3214 32.69 29.4409 32.7525 29.5654 32.805C29.6899 32.8574 29.8193 32.9024 29.9638 32.9424C30.036 32.9598 30.1131 32.9798 30.1953 32.9923C30.2376 32.9998 30.2799 33.0073 30.3248 33.0123C30.3696 33.0173 30.4169 33.0248 30.4617 33.0248C30.514 33.0298 30.5663 33.0323 30.6161 33.0348C30.6659 33.0348 30.7107 33.0348 30.7555 33.0323C30.8376 33.0273 30.9223 33.0223 31.0045 33.0173C31.0443 33.0173 31.0816 33.0098 31.1215 33.0048L31.1787 32.9948L31.236 32.9848C31.3107 32.9698 31.3854 32.9524 31.4576 32.9324C31.6045 32.8899 31.7514 32.8374 31.9008 32.77C32.0501 32.7 32.202 32.6176 32.3539 32.5126C32.5082 32.4077 32.6626 32.2853 32.8195 32.1379C32.9738 31.9905 33.1307 31.8206 33.2825 31.6308C33.5888 31.251 33.8851 30.7888 34.1689 30.3017C34.3108 30.0593 34.4502 29.807 34.5896 29.5522C34.7266 29.2974 34.8635 29.04 34.998 28.7777C35.2668 28.2556 35.5308 27.7284 35.7922 27.1988C36.0561 26.6642 36.32 26.1295 36.5814 25.5924C36.8403 25.0678 37.0968 24.5481 37.3582 24.036C37.6171 23.5238 37.8786 23.0217 38.145 22.5345C38.4089 22.0473 38.6803 21.5727 38.9491 21.1405C39.0836 20.9256 39.2205 20.7208 39.35 20.5384C39.4147 20.4484 39.4795 20.3635 39.5367 20.2886C39.5965 20.2136 39.6512 20.1487 39.6961 20.1012C39.7135 20.0837 39.7259 20.0712 39.7384 20.0587C41.1052 19.0744 41.4737 17.1057 40.082 15.8466V15.8616ZM7.99946 24.7755V24.7705V24.7755Z" fill="currentColor"/>
</svg>
